<?xml version="1.0" standalone="no"?>
<!DOCTYPE svg PUBLIC "-//W3C//DTD SVG 20010904//EN"
 "http://www.w3.org/TR/2001/REC-SVG-20010904/DTD/svg10.dtd">
<svg version="1.0" xmlns="http://www.w3.org/2000/svg"
 width="1280.000000pt" height="1266.000000pt" viewBox="0 0 1280.000000 1266.000000"
 preserveAspectRatio="xMidYMid meet">
<metadata>
Created by potrace 1.15, written by Peter Selinger 2001-2017
</metadata>
<g transform="translate(0.000000,1266.000000) scale(0.100000,-0.100000)"
fill="#000000" stroke="none">
<path d="M5103 12595 c-121 -149 -366 -313 -688 -462 -60 -28 -258 -115 -440
-193 -351 -151 -567 -255 -705 -340 -168 -104 -318 -188 -505 -285 -578 -299
-761 -414 -963 -609 -153 -146 -226 -253 -359 -525 -800 -1633 -1132 -2450
-1394 -3433 l-50 -187 24 -59 c76 -190 262 -365 526 -497 149 -74 285 -126
647 -249 186 -63 371 -128 410 -144 80 -34 254 -80 424 -114 91 -18 150 -22
282 -23 l167 0 41 40 c133 129 198 332 301 934 26 149 29 148 53 -10 52 -342
48 -926 -9 -1634 -41 -498 -74 -793 -275 -2480 -104 -875 -159 -1436 -176
-1796 l-7 -146 59 -40 c181 -123 421 -202 739 -242 154 -20 344 -31 787 -46
246 -9 494 -20 551 -25 158 -15 836 -30 1387 -30 886 0 2118 29 3445 80 149 6
434 17 634 25 200 8 365 16 367 17 2 2 -10 114 -26 248 -75 618 -107 1010
-120 1480 -14 469 -27 599 -189 1860 -103 798 -155 1292 -186 1765 -9 132 -21
260 -26 284 -7 32 -40 630 -38 696 0 30 88 -182 151 -365 44 -130 108 -370
108 -406 0 -30 4 -30 163 -4 67 10 329 49 582 85 609 87 907 132 1035 155 58
10 143 21 190 25 338 25 557 73 706 155 l69 37 -2 54 c-2 29 -30 188 -63 354
-33 165 -71 370 -84 455 -23 144 -38 193 -209 705 -442 1316 -667 1891 -1007
2580 -200 405 -262 512 -323 560 -207 162 -434 286 -757 415 -156 62 -204 80
-550 200 -423 147 -610 219 -754 292 -33 16 -118 50 -190 74 -164 56 -361 152
-491 240 -55 37 -183 131 -285 208 -101 78 -229 171 -284 207 l-99 66 -126
-33 c-286 -77 -620 -130 -902 -143 -487 -23 -965 59 -1396 240 -54 22 -102 43
-108 45 -5 2 -33 -25 -62 -61z"/>
</g>
</svg>
